<?xml version="1.0" encoding="utf-8"?>
<!-- Generator: Adobe Illustrator 24.0.1, SVG Export Plug-In . SVG Version: 6.00 Build 0)  -->
<svg version="1.1" id="Layer_1" xmlns="http://www.w3.org/2000/svg" xmlns:xlink="http://www.w3.org/1999/xlink" x="0px" y="0px"
	 viewBox="0 0 841.9 595.3" style="enable-background:new 0 0 841.9 595.3;" xml:space="preserve">
<style type="text/css">
	.st0{fill:#1A73E8;}
	.st1{fill:#FFFFFF;}
	.st2{fill:none;stroke:#FFFFFF;stroke-width:14;stroke-miterlimit:10;}
</style>
<rect y="0" class="st0" width="841.9" height="596.7"/>
<path class="st1" d="M90.5,326.1h22.6v13.3H73.2v-70.9h17.3V326.1z"/>
<path class="st1" d="M132.1,336.7c-4.4-2.4-7.9-5.7-10.4-10.1s-3.8-9.5-3.8-15.3s1.3-10.9,3.8-15.3c2.6-4.4,6.1-7.8,10.5-10.1
	c4.4-2.4,9.4-3.5,14.9-3.5s10.5,1.2,14.9,3.5c4.4,2.4,7.9,5.7,10.5,10.1s3.8,9.5,3.8,15.3s-1.3,10.9-3.9,15.3
	c-2.6,4.4-6.1,7.8-10.6,10.1c-4.5,2.4-9.5,3.5-15,3.5C141.5,340.2,136.5,339,132.1,336.7z M155.4,321.6c2.3-2.4,3.5-5.9,3.5-10.4
	s-1.1-8-3.4-10.4c-2.3-2.4-5-3.6-8.3-3.6c-3.4,0-6.2,1.2-8.4,3.6s-3.3,5.9-3.3,10.4s1.1,8,3.3,10.4s4.9,3.6,8.2,3.6
	C150.3,325.3,153.1,324,155.4,321.6z"/>
<path class="st1" d="M185.8,295.9c2.4-4.4,5.7-7.7,10-10.1s9.2-3.5,14.7-3.5c7.1,0,13,1.9,17.7,5.6s7.9,8.9,9.3,15.6h-18.4
	c-1.5-4.3-4.5-6.5-9-6.5c-3.2,0-5.7,1.2-7.6,3.7c-1.9,2.5-2.8,6-2.8,10.5c0,4.6,0.9,8.1,2.8,10.5c1.9,2.5,4.4,3.7,7.6,3.7
	c4.4,0,7.4-2.2,9-6.5h18.4c-1.5,6.6-4.6,11.8-9.4,15.5c-4.8,3.8-10.7,5.7-17.7,5.7c-5.5,0-10.4-1.2-14.7-3.5
	c-4.3-2.4-7.6-5.7-10-10.1s-3.6-9.5-3.6-15.3C182.2,305.4,183.4,300.3,185.8,295.9z"/>
<path class="st1" d="M246.6,295.9c2.2-4.4,5.2-7.7,8.9-10.1c3.8-2.4,8-3.5,12.6-3.5c4,0,7.5,0.8,10.4,2.4c3,1.6,5.3,3.7,6.9,6.4v-8
	h17.3v56.3h-17.3v-8c-1.7,2.6-4,4.7-7,6.4c-3,1.6-6.5,2.4-10.4,2.4c-4.6,0-8.7-1.2-12.5-3.6c-3.8-2.4-6.7-5.8-8.9-10.2
	c-2.2-4.4-3.3-9.5-3.3-15.3C243.3,305.3,244.4,300.3,246.6,295.9z M281.9,301c-2.4-2.5-5.3-3.7-8.7-3.7s-6.3,1.2-8.7,3.7
	c-2.4,2.5-3.6,5.8-3.6,10.1c0,4.3,1.2,7.7,3.6,10.2s5.3,3.8,8.7,3.8s6.3-1.2,8.7-3.7c2.4-2.5,3.6-5.9,3.6-10.2
	C285.5,306.9,284.3,303.5,281.9,301z"/>
<path class="st1" d="M332.5,264.7v74.7h-17.3v-74.7H332.5z"/>
<path class="st1" d="M395.9,337.5c-1.9-1.8-2.9-4-2.9-6.6c0-2.7,1-4.9,2.9-6.8c1.9-1.8,4.4-2.7,7.4-2.7s5.4,0.9,7.3,2.7
	c1.9,1.8,2.9,4.1,2.9,6.8c0,2.6-1,4.8-2.9,6.6c-1.9,1.8-4.4,2.7-7.3,2.7C400.3,340.2,397.8,339.3,395.9,337.5z"/>
<path class="st1" d="M444.4,336.7c-4.4-2.4-7.9-5.7-10.4-10.1s-3.8-9.5-3.8-15.3s1.3-10.9,3.8-15.3c2.6-4.4,6.1-7.8,10.5-10.1
	c4.4-2.4,9.4-3.5,14.9-3.5s10.5,1.2,14.9,3.5c4.4,2.4,7.9,5.7,10.5,10.1s3.8,9.5,3.8,15.3s-1.3,10.9-3.9,15.3s-6.1,7.8-10.6,10.1
	c-4.5,2.4-9.5,3.5-15,3.5C453.8,340.2,448.8,339,444.4,336.7z M467.7,321.6c2.3-2.4,3.5-5.9,3.5-10.4s-1.1-8-3.4-10.4
	s-5-3.6-8.3-3.6c-3.4,0-6.2,1.2-8.4,3.6c-2.2,2.4-3.3,5.9-3.3,10.4s1.1,8,3.3,10.4c2.2,2.4,4.9,3.6,8.2,3.6
	C462.6,325.3,465.4,324,467.7,321.6z"/>
<path class="st1" d="M548.1,288.9c3.9,4.3,5.9,10.1,5.9,17.6v32.9h-17.2v-30.6c0-3.8-1-6.7-2.9-8.8c-2-2.1-4.6-3.1-7.9-3.1
	c-3.3,0-5.9,1-7.9,3.1s-2.9,5-2.9,8.8v30.6H498v-56.3h17.3v7.5c1.7-2.5,4.1-4.5,7.1-5.9s6.3-2.2,10-2.2
	C538.9,282.5,544.1,284.6,548.1,288.9z"/>
<path class="st1" d="M583.3,264.7v74.7H566v-74.7H583.3z"/>
<path class="st1" d="M597,274.5c-1.9-1.8-2.9-4-2.9-6.6c0-2.7,1-4.9,2.9-6.7c1.9-1.8,4.4-2.7,7.4-2.7s5.4,0.9,7.3,2.7
	c1.9,1.8,2.9,4,2.9,6.7c0,2.6-1,4.8-2.9,6.6c-1.9,1.8-4.4,2.7-7.3,2.7C601.4,277.2,598.9,276.3,597,274.5z M613,283.1v56.3h-17.3
	v-56.3H613z"/>
<path class="st1" d="M675.7,288.9c3.9,4.3,5.9,10.1,5.9,17.6v32.9h-17.2v-30.6c0-3.8-1-6.7-2.9-8.8c-2-2.1-4.6-3.1-7.9-3.1
	c-3.3,0-5.9,1-7.9,3.1s-2.9,5-2.9,8.8v30.6h-17.3v-56.3h17.3v7.5c1.7-2.5,4.1-4.5,7.1-5.9s6.3-2.2,10-2.2
	C666.5,282.5,671.7,284.6,675.7,288.9z"/>
<path class="st1" d="M746.4,315.4h-39.1c0.3,3.5,1.4,6.2,3.4,8c2,1.9,4.4,2.8,7.3,2.8c4.3,0,7.3-1.8,9-5.5h18.4
	c-0.9,3.7-2.6,7-5.1,10s-5.5,5.3-9.2,7s-7.8,2.5-12.4,2.5c-5.5,0-10.4-1.2-14.7-3.5c-4.3-2.4-7.7-5.7-10.1-10.1
	c-2.4-4.4-3.6-9.5-3.6-15.3c0-5.9,1.2-11,3.6-15.3c2.4-4.4,5.7-7.7,10-10.1s9.3-3.5,14.8-3.5s10.3,1.1,14.5,3.4s7.6,5.6,9.9,9.8
	c2.4,4.2,3.6,9.2,3.6,14.8C746.7,311.9,746.6,313.6,746.4,315.4z M729,305.8c0-3-1-5.3-3-7.1c-2-1.7-4.5-2.6-7.6-2.6
	c-2.9,0-5.3,0.8-7.3,2.5s-3.2,4.1-3.7,7.2H729z"/>
<polyline class="st2" points="74,247.9 446,247.9 332.5,361.4 749,361.4 "/>
</svg>
